<?xml version="1.0" encoding="iso-8859-1"?>
<!-- Generator: Adobe Illustrator 19.0.0, SVG Export Plug-In . SVG Version: 6.00 Build 0)  -->
<svg version="1.1" id="Layer_1" xmlns="http://www.w3.org/2000/svg" xmlns:xlink="http://www.w3.org/1999/xlink" x="0px" y="0px"
	 viewBox="0 0 512 512" style="enable-background:new 0 0 512 512;" xml:space="preserve">
<polygon style="fill:#EFC27B;" points="256,505.6 0,172.8 115.2,6.4 396.8,6.4 512,172.8 "/>
<g>
	<polygon style="fill:#ECB45C;" points="396.8,6.4 256.975,6.4 256.975,504.332 512,172.8 	"/>
	<path style="fill:#ECB45C;" d="M393.58,153.6l19.114-124.242L396.8,6.4h-19.427l-17.821,115.844L279.352,6.4h-46.705l-80.2,115.844
		L134.627,6.4H115.2L99.306,29.358L118.42,153.6H13.293L0,172.8L14.77,192h112.358l91.931,265.576L256,505.6l36.941-48.024
		L384.872,192H497.23L512,172.8l-13.293-19.2H393.58z M256,40.132L334.556,153.6H177.444L256,40.132z M256,446.904L167.763,192
		h176.472L256,446.904z"/>
</g>
<polygon style="fill:#E9A440;" points="498.707,153.6 393.58,153.6 412.694,29.358 396.8,6.4 377.373,6.4 359.552,122.244 
	279.352,6.4 256,6.4 256,40.132 334.556,153.6 256,153.6 256,192 344.237,192 256,446.904 256,505.6 292.941,457.576 384.872,192 
	497.23,192 512,172.8 "/>
<g>
</g>
<g>
</g>
<g>
</g>
<g>
</g>
<g>
</g>
<g>
</g>
<g>
</g>
<g>
</g>
<g>
</g>
<g>
</g>
<g>
</g>
<g>
</g>
<g>
</g>
<g>
</g>
<g>
</g>
</svg>
